<?xml version="1.0" standalone="no"?>
<!DOCTYPE svg PUBLIC "-//W3C//DTD SVG 20010904//EN"
 "http://www.w3.org/TR/2001/REC-SVG-20010904/DTD/svg10.dtd">
<svg version="1.0" xmlns="http://www.w3.org/2000/svg"
 width="595.000000pt" height="278.000000pt" viewBox="0 0 595.000000 278.000000"
 preserveAspectRatio="xMidYMid meet">

<g transform="translate(0.000000,278.000000) scale(0.100000,-0.100000)"
fill="#000000" stroke="none">
<path d="M2875 2654 c-11 -3 -48 -11 -82 -20 l-61 -16 25 -36 c13 -21 27 -49
30 -64 5 -25 7 -23 34 32 27 52 55 82 99 102 11 5 10 6 -5 6 -11 0 -29 -2 -40
-4z"/>
<path d="M2981 2606 c-25 -61 -62 -98 -116 -117 -19 -7 -35 -16 -35 -19 0 -4
18 -12 39 -18 48 -15 106 -77 122 -132 l13 -41 18 50 c22 57 83 119 129 128
32 6 50 23 24 23 -54 0 -133 72 -158 144 l-13 37 -23 -55z"/>
<path d="M3117 2636 c31 -20 50 -42 71 -87 l29 -61 7 33 c3 18 18 47 32 66 18
24 21 34 12 37 -58 19 -90 26 -138 31 l-55 7 42 -26z"/>
<path d="M3344 2535 c-22 -23 -56 -46 -75 -51 l-33 -10 57 -27 c60 -30 90 -63
111 -124 l13 -37 26 57 c20 43 37 63 71 86 l46 29 -52 39 c-29 22 -69 48 -88
59 l-35 19 -41 -40z"/>
<path d="M2549 2518 c-40 -29 -74 -58 -76 -63 -2 -6 10 -19 27 -28 35 -21 57
-52 75 -103 l12 -35 28 56 c20 42 39 65 73 86 25 16 54 29 64 29 31 0 20 16
-19 28 -21 6 -54 27 -74 47 l-37 35 -73 -52z"/>
<path d="M2791 2439 c-2 -60 -83 -147 -154 -165 -28 -6 -27 -8 32 -36 67 -32
105 -77 117 -137 l7 -34 18 50 c23 61 71 108 135 133 27 10 41 19 30 20 -33 0
-116 53 -136 86 -11 17 -27 49 -34 70 -13 33 -15 35 -15 13z"/>
<path d="M3201 2427 c-6 -16 -11 -32 -11 -37 0 -33 -112 -119 -157 -121 -10 0
6 -9 34 -20 58 -22 118 -83 128 -130 8 -34 25 -49 25 -22 0 30 55 108 91 131
19 11 47 24 63 28 29 7 28 7 -19 25 -71 27 -114 74 -135 149 l-7 25 -12 -28z"/>
<path d="M3585 2364 c-22 -40 -53 -65 -108 -85 l-37 -13 58 -27 c61 -27 91
-63 118 -138 7 -20 13 -28 14 -18 0 28 29 79 67 119 l36 36 -24 39 c-28 46
-89 123 -98 123 -4 0 -15 -16 -26 -36z"/>
<path d="M2371 2352 c-17 -22 -42 -59 -55 -83 l-25 -43 34 -37 c19 -21 39 -56
46 -79 l13 -42 13 45 c16 57 75 118 132 137 l43 14 -35 12 c-51 18 -85 43
-112 81 l-23 34 -31 -39z"/>
<path d="M3001 2237 c-2 -59 -82 -147 -152 -168 l-41 -13 46 -13 c61 -18 119
-75 137 -136 l13 -47 14 45 c17 61 78 121 137 137 l45 12 -50 19 c-63 23 -112
73 -133 135 -9 26 -16 39 -16 29z"/>
<path d="M2580 2217 c0 -7 -14 -35 -30 -61 -24 -38 -43 -53 -93 -76 -34 -16
-54 -29 -44 -30 55 -1 149 -82 162 -139 9 -40 22 -39 30 1 11 46 93 125 141
134 l38 7 -43 17 c-63 24 -106 63 -127 114 -18 45 -34 60 -34 33z"/>
<path d="M3410 2217 c0 -7 -14 -35 -30 -61 -24 -38 -43 -53 -91 -75 l-60 -27
40 -12 c22 -7 54 -24 71 -39 33 -27 70 -90 71 -120 0 -10 9 2 20 27 11 25 32
58 47 73 30 32 91 67 119 68 10 0 -2 8 -26 16 -54 19 -126 89 -136 132 -6 30
-25 44 -25 18z"/>
<path d="M3744 2104 c-17 -13 -48 -30 -70 -38 -24 -9 -31 -15 -19 -15 37 -2
115 -55 140 -96 l24 -40 1 35 c0 36 -24 141 -38 165 -5 10 -15 7 -38 -11z"/>
<path d="M2231 2081 c-6 -22 -15 -60 -20 -85 l-8 -46 39 40 c22 22 58 45 81
52 l40 12 -44 19 c-24 10 -51 25 -60 33 -14 13 -17 10 -28 -25z"/>
<path d="M2366 1996 c-25 -65 -57 -100 -118 -126 l-52 -22 39 -14 c62 -21 88
-45 122 -114 18 -36 33 -57 33 -47 0 55 83 150 142 162 37 9 36 22 -3 30 -56
12 -120 83 -139 154 -5 22 -8 20 -24 -23z"/>
<path d="M2785 2004 c-8 -46 -88 -129 -133 -139 -40 -8 -41 -21 -4 -30 58 -12
140 -106 143 -162 0 -10 7 0 15 21 27 76 81 126 154 146 23 6 20 9 -31 32 -61
28 -99 70 -119 131 -6 20 -13 37 -15 37 -1 0 -6 -16 -10 -36z"/>
<path d="M3617 2014 c-10 -51 -64 -114 -118 -137 -26 -12 -49 -24 -49 -27 0
-3 20 -13 44 -23 55 -23 92 -62 115 -122 l19 -49 6 31 c15 68 81 132 156 153
23 6 21 8 -26 29 -64 28 -99 64 -123 126 -18 46 -18 47 -24 19z"/>
<path d="M3186 1975 c-21 -42 -40 -64 -74 -86 -25 -16 -54 -29 -64 -29 -10 0
-18 -4 -18 -10 0 -5 8 -10 18 -10 10 0 40 -14 66 -30 37 -24 53 -43 73 -87
l26 -57 14 39 c18 52 78 113 125 127 39 11 51 28 21 28 -26 0 -98 47 -117 76
-10 14 -23 42 -30 61 l-12 36 -28 -58z"/>
<path d="M3001 1830 c-1 -8 -12 -39 -26 -67 -18 -39 -36 -60 -71 -83 -27 -16
-57 -30 -68 -31 -13 0 -2 -9 29 -23 58 -26 108 -79 125 -132 l13 -38 22 49
c27 61 81 110 137 125 l42 12 -55 18 c-64 22 -113 72 -134 139 -7 26 -14 39
-14 31z"/>
<path d="M3411 1817 c-1 -26 -35 -89 -63 -114 -12 -12 -43 -31 -66 -41 l-44
-20 54 -25 c58 -26 90 -62 112 -124 l13 -37 25 56 c27 59 69 97 131 119 l38
13 -43 13 c-55 16 -104 63 -134 128 -13 28 -23 42 -23 32z"/>
<path d="M2576 1785 c-28 -67 -110 -135 -163 -135 -10 0 11 -15 47 -33 69 -34
93 -60 114 -121 l13 -39 25 55 c28 60 70 98 133 118 38 13 39 14 15 20 -72 20
-131 72 -153 135 l-14 40 -17 -40z"/>
<path d="M3807 1769 c-19 -47 -74 -97 -119 -111 -42 -12 -42 -23 0 -31 16 -3
43 -18 61 -32 l31 -27 11 29 c12 30 40 196 34 202 -2 2 -10 -12 -18 -30z"/>
<path d="M2212 1701 c10 -55 28 -111 35 -111 3 0 17 7 31 15 15 8 41 20 57 26
l30 11 -44 15 c-24 9 -60 32 -81 53 l-37 37 9 -46z"/>
<path d="M2380 1622 c0 -25 -39 -97 -64 -121 l-26 -24 27 -46 c14 -25 40 -63
56 -83 l30 -37 27 38 c27 36 99 81 131 81 8 0 -13 13 -46 29 -73 34 -93 55
-116 123 -10 29 -18 47 -19 40z"/>
<path d="M3200 1593 c-23 -74 -108 -152 -167 -153 -10 -1 4 -10 31 -20 63 -25
103 -62 132 -125 12 -27 23 -42 23 -32 1 26 36 89 64 115 13 13 46 31 72 41
47 18 48 18 19 25 -70 17 -138 87 -154 160 l-7 31 -13 -42z"/>
<path d="M2791 1604 c-2 -41 -58 -112 -110 -139 -28 -14 -58 -25 -68 -26 -10
0 4 -8 32 -17 61 -20 120 -77 136 -132 l13 -42 21 48 c25 57 78 107 132 125
l38 12 -45 19 c-60 26 -98 62 -126 123 -14 31 -23 42 -23 29z"/>
<path d="M3606 1574 c-24 -58 -78 -111 -129 -126 l-39 -12 36 -13 c53 -18 89
-46 111 -87 11 -20 23 -36 27 -36 9 0 69 75 98 123 l23 39 -36 36 c-20 20 -44
56 -54 79 l-18 43 -19 -46z"/>
<path d="M2991 1380 c-16 -55 -72 -115 -127 -136 l-45 -17 37 -13 c60 -21 87
-46 121 -112 31 -61 32 -61 38 -33 14 66 105 151 160 151 26 0 8 17 -24 23
-46 9 -107 71 -129 128 l-18 50 -13 -41z"/>
<path d="M2566 1355 c-18 -35 -41 -65 -62 -78 -19 -12 -34 -25 -34 -29 0 -9
75 -69 121 -96 l36 -22 24 26 c27 30 90 64 116 64 10 0 -11 15 -47 33 -68 34
-93 60 -114 121 l-13 37 -27 -56z"/>
<path d="M3405 1383 c-13 -54 -56 -102 -117 -132 l-60 -28 37 -7 c23 -5 54
-23 81 -48 l45 -42 32 19 c18 10 56 36 86 58 l54 40 -29 15 c-46 23 -71 50
-93 103 -12 27 -23 49 -25 49 -2 0 -7 -12 -11 -27z"/>
<path d="M2787 1185 c-3 -17 -17 -46 -30 -66 l-25 -37 57 -15 c31 -9 74 -19
96 -23 l40 -6 -41 30 c-37 27 -50 47 -81 122 l-10 24 -6 -29z"/>
<path d="M3192 1156 c-21 -47 -62 -92 -97 -107 -36 -14 35 -10 100 6 92 24 90
23 72 43 -9 9 -25 37 -35 61 l-20 44 -20 -47z"/>
<path d="M4766 824 c-19 -18 -19 -20 -6 -45 11 -19 51 -26 84 -13 19 7 21 45
4 62 -17 17 -64 15 -82 -4z"/>
<path d="M820 800 c0 -20 5 -30 15 -30 13 0 15 -23 15 -145 0 -120 -3 -145
-14 -145 -20 0 -26 -12 -19 -38 5 -20 12 -22 79 -22 l74 0 0 30 c0 23 -4 30
-20 30 -18 0 -20 7 -20 68 0 81 17 112 60 112 42 0 50 -23 50 -139 l0 -101 60
0 60 0 0 30 c0 23 -5 30 -19 30 -17 0 -19 10 -23 96 -3 91 -5 97 -31 120 -33
28 -100 33 -135 8 l-22 -15 0 70 0 71 -55 0 c-54 0 -55 0 -55 -30z"/>
<path d="M1480 800 c0 -23 4 -30 20 -30 19 0 20 -7 20 -145 0 -138 -1 -145
-20 -145 -16 0 -20 -7 -20 -30 l0 -31 78 3 c76 3 77 3 80 31 3 22 -1 27 -17
27 -19 0 -21 6 -21 73 0 80 15 107 58 107 39 0 52 -36 52 -143 l0 -98 58 3
c54 3 57 4 60 31 3 22 -1 27 -17 27 -19 0 -21 6 -21 64 0 132 -28 176 -111
176 -26 0 -51 -4 -54 -10 -16 -25 -25 -5 -25 55 l0 65 -60 0 -60 0 0 -30z"/>
<path d="M620 765 c0 -38 -3 -45 -19 -45 -11 0 -23 -5 -26 -10 -11 -18 6 -50
26 -50 17 0 19 -7 19 -67 0 -146 43 -195 148 -167 39 11 26 74 -14 66 -42 -8
-54 13 -54 94 l0 74 40 0 c38 0 40 2 40 30 0 28 -2 30 -40 30 l-40 0 0 45 0
45 -40 0 -40 0 0 -45z"/>
<path d="M1243 700 c-42 -25 -63 -68 -63 -125 0 -90 47 -145 130 -153 51 -5
111 10 129 32 8 10 8 22 1 40 -9 26 -11 26 -32 12 -12 -9 -41 -16 -64 -16 -34
0 -47 5 -64 28 l-22 27 101 3 101 3 0 40 c0 51 -23 95 -60 114 -41 21 -118 19
-157 -5z m137 -60 c38 -38 27 -50 -50 -50 -77 0 -86 9 -50 48 26 28 73 29 100
2z"/>
<path d="M1913 700 c-50 -30 -68 -65 -67 -131 1 -41 7 -65 22 -86 57 -80 189
-83 246 -6 24 33 32 109 16 157 -25 77 -141 113 -217 66z m130 -72 c24 -28 22
-89 -3 -116 -57 -61 -139 11 -109 96 18 52 75 63 112 20z"/>
<path d="M2160 690 c0 -23 4 -30 20 -30 19 0 20 -7 20 -90 0 -83 -1 -90 -20
-90 -16 0 -20 -7 -20 -30 l0 -30 75 0 75 0 0 30 c0 20 -5 30 -15 30 -12 0 -15
15 -15 71 0 39 5 79 10 90 12 21 54 26 67 7 4 -7 10 -60 13 -118 l5 -105 55 0
c53 0 55 1 58 28 3 22 -1 27 -17 27 -19 0 -21 6 -21 73 0 77 15 107 52 107 29
0 37 -26 40 -131 l3 -104 58 -3 57 -3 0 31 c0 23 -4 30 -20 30 -19 0 -20 7
-20 89 0 82 -2 92 -26 120 -21 26 -33 31 -69 31 -26 0 -51 -7 -66 -19 -24 -19
-25 -19 -48 0 -27 22 -100 26 -119 7 -9 -9 -12 -9 -12 0 0 8 -20 12 -60 12
l-60 0 0 -30z"/>
<path d="M2753 705 c-66 -28 -94 -132 -58 -209 31 -65 131 -94 209 -62 42 18
49 28 36 61 -9 25 -11 25 -32 11 -31 -22 -101 -21 -121 2 -33 36 -22 42 84 42
l101 0 -7 43 c-11 66 -22 85 -57 107 -39 23 -108 26 -155 5z m127 -65 c38 -38
27 -50 -50 -50 -38 0 -70 4 -70 9 0 4 9 20 21 35 25 32 70 35 99 6z"/>
<path d="M3070 702 c-49 -24 -72 -73 -67 -145 3 -46 9 -63 32 -87 37 -38 86
-54 143 -46 66 9 94 30 86 64 -9 35 -7 35 -40 17 -47 -24 -99 -20 -123 11 -36
46 -27 105 21 130 40 21 68 10 68 -27 0 -27 3 -29 35 -29 l35 0 0 55 c0 50 -2
56 -26 65 -40 16 -126 12 -164 -8z"/>
<path d="M3380 713 c-28 -10 -70 -56 -81 -90 -14 -45 -4 -114 23 -149 42 -52
123 -68 198 -38 40 16 46 29 32 67 -7 16 -9 16 -27 3 -42 -32 -145 -10 -145
30 0 11 20 14 100 14 l100 0 0 30 c0 44 -23 93 -55 118 -21 16 -41 22 -79 21
-28 0 -58 -3 -66 -6z m112 -70 c10 -9 18 -24 18 -35 0 -16 -8 -18 -65 -18 -54
0 -65 3 -65 17 0 46 74 71 112 36z"/>
<path d="M3600 690 c0 -23 4 -30 20 -30 19 0 20 -7 20 -90 0 -83 -1 -90 -20
-90 -16 0 -20 -7 -20 -30 l0 -31 78 3 c76 3 77 3 80 31 3 22 -1 27 -19 27 -20
0 -21 4 -17 57 4 48 10 61 37 85 17 15 42 28 56 28 22 0 25 4 25 35 0 32 -2
35 -29 35 -17 0 -42 -11 -60 -26 l-31 -26 0 26 c0 25 -2 26 -60 26 l-60 0 0
-30z"/>
<path d="M3921 707 c-88 -45 -93 -216 -7 -268 37 -22 90 -24 129 -5 23 13 27
13 27 0 0 -10 14 -14 54 -14 47 0 54 3 59 22 7 26 1 38 -19 38 -11 0 -14 22
-14 120 l0 120 -39 0 c-22 0 -41 -5 -43 -11 -3 -9 -9 -9 -25 0 -28 15 -92 14
-122 -2z m133 -79 c9 -12 16 -38 16 -58 0 -51 -24 -80 -65 -80 -18 0 -41 7
-49 16 -33 32 -33 96 0 128 24 24 80 20 98 -6z"/>
<path d="M4210 690 c0 -23 4 -30 20 -30 19 0 20 -7 20 -90 0 -83 -1 -90 -20
-90 -16 0 -20 -7 -20 -30 l0 -30 75 0 75 0 0 29 c0 20 -6 30 -20 34 -17 4 -20
13 -20 64 0 73 17 107 53 111 37 5 47 -26 47 -144 l0 -94 55 0 c54 0 55 0 55
30 0 20 -5 30 -15 30 -12 0 -15 15 -15 74 0 79 13 106 49 106 32 0 40 -24 43
-131 l3 -104 55 0 c53 0 55 1 58 28 3 21 -1 27 -16 27 -18 0 -20 8 -24 94 -3
84 -6 97 -27 120 -31 33 -96 36 -132 7 -24 -19 -25 -19 -48 0 -25 21 -81 25
-111 9 -13 -7 -21 -7 -25 0 -3 5 -31 10 -61 10 -53 0 -54 0 -54 -30z"/>
<path d="M4730 694 c0 -17 6 -28 20 -31 18 -5 20 -14 20 -94 0 -83 -1 -89 -21
-89 -16 0 -20 -5 -17 -27 3 -28 4 -28 78 -28 74 0 75 0 78 28 3 22 -1 27 -17
27 -20 0 -21 5 -21 120 l0 120 -60 0 c-58 0 -60 -1 -60 -26z"/>
<path d="M4973 700 c-42 -25 -63 -68 -63 -127 0 -125 110 -189 226 -132 32 15
41 25 37 37 -2 9 -7 23 -9 30 -3 10 -10 9 -33 -3 -70 -36 -141 -4 -141 64 0
43 15 70 47 82 39 15 63 3 63 -32 0 -27 3 -29 35 -29 l35 0 0 55 c0 50 -2 56
-26 65 -44 17 -136 12 -171 -10z"/>
<path d="M5239 691 c-32 -32 -35 -47 -18 -85 11 -24 40 -43 112 -70 26 -11 37
-21 37 -35 0 -18 -6 -21 -43 -21 -36 0 -46 4 -55 24 -8 18 -16 22 -36 19 -23
-5 -26 -10 -26 -44 0 -36 2 -39 38 -48 50 -15 122 -13 152 2 13 7 31 24 39 38
12 22 12 29 -3 61 -14 28 -30 42 -77 63 -85 38 -91 74 -12 75 25 0 32 -5 35
-22 2 -15 10 -23 23 -23 16 0 21 8 23 41 4 48 -6 54 -101 54 -51 0 -62 -4 -88
-29z"/>
</g>
</svg>
