<svg xmlns="http://www.w3.org/2000/svg" width="80" height="80" viewBox="0 0 80 80">
  <path id="Path_37382" data-name="Path 37382" d="M393.358,275.627l-1.97,1.971,8.714,8.712H373.7l-.207-.766a8.341,8.341,0,0,0-5.87-5.871l-.768-.206v-26.4l8.738,8.741,1.97-1.972-12.1-12.105-12.1,12.105,1.971,1.972,8.741-8.741v26.4l-.768.206a8.342,8.342,0,0,0-5.871,5.871l-.206.766h-26.4l8.714-8.712-1.971-1.971-12.1,12.1,12.1,12.105,1.971-1.969-8.77-8.771H357.22l.206.766a8.346,8.346,0,0,0,5.871,5.871l.768.206v26.457l-8.74-8.739-1.971,1.97,12.1,12.1,12.1-12.1-1.97-1.97-8.738,8.739V295.941l.768-.206a8.346,8.346,0,0,0,5.871-5.871l.206-.766h26.454l-8.77,8.771,1.969,1.969,12.111-12.109Zm-27.9,17.545a5.444,5.444,0,1,1,5.445-5.444A5.444,5.444,0,0,1,365.462,293.172Z" transform="translate(-325.462 -247.728)"/>
</svg>
