<svg xmlns="http://www.w3.org/2000/svg" width="80" height="80" viewBox="0 0 80 80">
  <g id="Group_39766" data-name="Group 39766" transform="translate(-1008.001 -898)">
    <path id="Path_37358" data-name="Path 37358" d="M642.578,332.812l2.409,2.41a2.134,2.134,0,0,0,3.017,0h0l1.506-1.508c.243.11.491.213.741.307v2.131a2.136,2.136,0,0,0,2.135,2.133h3.406a2.137,2.137,0,0,0,2.134-2.133v-2.131c.251-.094.5-.2.74-.307l1.508,1.508a2.137,2.137,0,0,0,3.017,0l2.41-2.41a2.134,2.134,0,0,0,0-3.016l-1.508-1.506q.16-.365.307-.74h2.132a2.136,2.136,0,0,0,2.133-2.133v-3.41a2.136,2.136,0,0,0-2.133-2.134H664.4c-.094-.249-.2-.5-.307-.74l1.508-1.506a2.134,2.134,0,0,0,0-3.016l-2.41-2.409a2.137,2.137,0,0,0-3.018,0l-1.507,1.507c-.241-.11-.489-.213-.74-.305v-2.133a2.136,2.136,0,0,0-2.134-2.132h-3.406a2.136,2.136,0,0,0-2.135,2.132V313.4c-.25.092-.5.2-.741.305l-1.506-1.506a2.133,2.133,0,0,0-3.015,0l0,0-2.409,2.408a2.132,2.132,0,0,0,0,3.016h0l1.507,1.506c-.111.243-.213.491-.306.74h-2.133a2.137,2.137,0,0,0-2.134,2.134v3.4a2.136,2.136,0,0,0,2.134,2.133h2.133c.093.251.2.5.306.74l-1.509,1.508a2.133,2.133,0,0,0,0,3.016Zm1.348-7.6h-2.071V322.22h2.071a2.132,2.132,0,0,0,2.007-1.412,8.449,8.449,0,0,1,.333-.8,2.127,2.127,0,0,0-.421-2.417l-1.463-1.464,2.113-2.112,1.465,1.463a2.135,2.135,0,0,0,2.42.42,8.464,8.464,0,0,1,.8-.334,2.129,2.129,0,0,0,1.412-2.006V311.49h2.99v2.069a2.131,2.131,0,0,0,1.412,2.006,8.6,8.6,0,0,1,.8.334,2.135,2.135,0,0,0,2.419-.42l1.464-1.463,2.114,2.112-1.465,1.464a2.132,2.132,0,0,0-.419,2.417c.123.261.235.531.333.8a2.131,2.131,0,0,0,2.007,1.412h2.071V325.2h-2.071a2.129,2.129,0,0,0-2.007,1.411,8.355,8.355,0,0,1-.333.8,2.132,2.132,0,0,0,.419,2.417l1.465,1.464-2.114,2.112-1.464-1.463a2.135,2.135,0,0,0-2.419-.42,8.592,8.592,0,0,1-.8.332,2.133,2.133,0,0,0-1.414,2.008v2.069H652.59v-2.069a2.13,2.13,0,0,0-1.412-2.006,8.6,8.6,0,0,1-.8-.334,2.131,2.131,0,0,0-2.418.42l-1.465,1.463-2.113-2.112,1.463-1.464a2.129,2.129,0,0,0,.421-2.417c-.123-.261-.235-.531-.333-.8a2.133,2.133,0,0,0-2.007-1.411Z" transform="translate(393.908 614.243)"/>
    <path id="Path_37359" data-name="Path 37359" d="M654.093,329.964a6.25,6.25,0,1,0-6.252-6.252h0A6.26,6.26,0,0,0,654.093,329.964Zm0-10.158a3.908,3.908,0,1,1-3.91,3.909v0A3.913,3.913,0,0,1,654.093,319.806Z" transform="translate(393.908 614.243)"/>
    <path id="Path_37360" data-name="Path 37360" d="M632.878,297.952a5.722,5.722,0,0,0,0-8.094l0,0h0a5.726,5.726,0,1,0,0,8.1Zm-6.442-6.44a3.39,3.39,0,0,1,4.785,0h0a3.384,3.384,0,1,1-4.786,0Z" transform="translate(393.908 614.243)"/>
    <g id="Group_39562" data-name="Group 39562" transform="translate(393.908 614.243)">
      <path id="Path_37361" data-name="Path 37361" d="M632.878,348.6a5.722,5.722,0,0,0,0-8.094h0a5.726,5.726,0,1,0,0,8.1Zm-6.442-6.439a3.388,3.388,0,0,1,4.785,0h0a3.383,3.383,0,1,1-4.786,0Z"/>
    </g>
    <g id="Group_39563" data-name="Group 39563" transform="translate(393.908 614.243)">
      <path id="Path_37362" data-name="Path 37362" d="M683.287,297.952a5.721,5.721,0,0,0,0-8.094l0,0h0a5.726,5.726,0,1,0,0,8.1Zm-6.442-6.44a3.391,3.391,0,0,1,4.786,0h0a3.384,3.384,0,1,1-4.786,0Z"/>
    </g>
    <path id="Path_37363" data-name="Path 37363" d="M683.414,340.369a5.726,5.726,0,1,0,0,8.1h0A5.728,5.728,0,0,0,683.414,340.369Zm-1.657,6.439a3.384,3.384,0,1,1,0-4.784h0a3.384,3.384,0,0,1,.005,4.783Z" transform="translate(393.908 614.243)"/>
    <path id="Path_37364" data-name="Path 37364" d="M680.541,334.317v-21.19a14.68,14.68,0,1,0-15.953-15.8H643.477a14.714,14.714,0,1,0-15.814,15.8v21.3a14.685,14.685,0,1,0,15.814,15.658h21.229a14.714,14.714,0,1,0,15.834-15.778Zm-1.3-23.458a12.338,12.338,0,0,1-7.837-2.814,4.024,4.024,0,0,1,3.956-4.089h7.679a4.035,4.035,0,0,1,4.039,4.033v.056a12.359,12.359,0,0,1-7.836,2.809Zm0-24.7a12.337,12.337,0,0,1,9.856,19.809,6.408,6.408,0,0,0-6.058-4.369h-7.6a6.4,6.4,0,0,0-6.056,4.369,12.339,12.339,0,0,1,9.855-19.809Zm-60.276,19.809a12.374,12.374,0,1,1,19.712,0,6.4,6.4,0,0,0-6.057-4.369h-7.6a6.409,6.409,0,0,0-6.058,4.364Zm2.02,2.078a4.036,4.036,0,0,1,3.982-4.089h7.653a4.023,4.023,0,0,1,4.039,4.007v.082a12.32,12.32,0,0,1-15.674,0Zm7.837,53.362a12.328,12.328,0,0,1-7.837-2.793,4.053,4.053,0,0,1,4-4.11h7.639a4.04,4.04,0,0,1,4.039,4.042v.065a12.32,12.32,0,0,1-7.837,2.786Zm9.855-4.889a6.4,6.4,0,0,0-6.057-4.348h-7.6a6.417,6.417,0,0,0-6.058,4.348,12.24,12.24,0,0,1-2.519-7.44,12.376,12.376,0,0,1,24.75,0,12.229,12.229,0,0,1-2.519,7.43Zm4.779-8.757A14.676,14.676,0,0,0,630,334.441V313.127a14.659,14.659,0,0,0,13.474-13.463H664.59a14.674,14.674,0,0,0,13.594,13.463v21.19a14.674,14.674,0,0,0-13.474,13.444Zm28.068,10.711a4.039,4.039,0,0,1,3.969-4.108h7.666a4.041,4.041,0,0,1,4.039,4.042v.067a12.348,12.348,0,0,1-15.673-.008Zm17.693-2.1a6.4,6.4,0,0,0-6.058-4.348h-7.6a6.417,6.417,0,0,0-6.056,4.348,12.222,12.222,0,0,1-2.519-7.44,12.376,12.376,0,1,1,22.23,7.44Z" transform="translate(393.908 614.243)"/>
  </g>
</svg>
