<svg xmlns="http://www.w3.org/2000/svg" width="80" height="80" viewBox="0 0 80 80">
  <g id="Group_39561" data-name="Group 39561" transform="translate(-469.777 -268.537)">
    <path id="Path_37351" data-name="Path 37351" d="M548.617,298.6H534.234a1.18,1.18,0,0,0-1.181,1.16v6.679h-8.738v-6.679a1.166,1.166,0,0,0-1.17-1.16H508.78a1.165,1.165,0,0,0-1.179,1.151v13.868l-14.26,14.621h-1.92l-3.8-32a1.2,1.2,0,0,0-1.16-1.041h-8.119a1.171,1.171,0,0,0-1.16,1.041l-3.8,32h-2.424a1.179,1.179,0,0,0-1.181,1.158v17.961a1.183,1.183,0,0,0,1.181,1.179h77.659a1.163,1.163,0,0,0,1.16-1.169V299.759A1.161,1.161,0,0,0,548.617,298.6Zm-24.3,10.179h8.738v4.139h-8.738Zm-44.938-11.22h6.044l.621,5.321h-7.3Zm-.9,7.68h7.839l2.739,23H475.737ZM547.433,346.2H472.142V330.578h21.7a1.2,1.2,0,0,0,.84-.36l14.938-15.328a1.2,1.2,0,0,0,.32-.821v-13.13h12.039v13.138a1.165,1.165,0,0,0,1.149,1.181h11.111a1.183,1.183,0,0,0,1.179-1.181V300.939h12.02Z"/>
    <path id="Path_37352" data-name="Path 37352" d="M517.472,322.41h-5a1.173,1.173,0,0,0-1.173,1.171v15.448a1.171,1.171,0,0,0,1.171,1.171h5a1.172,1.172,0,0,0,1.173-1.17h0V323.581A1.173,1.173,0,0,0,517.472,322.41ZM516.3,337.857h-2.659v-13.1H516.3Z"/>
    <path id="Path_37353" data-name="Path 37353" d="M529.191,322.41h-5a1.173,1.173,0,0,0-1.173,1.171v15.448a1.172,1.172,0,0,0,1.171,1.171h5a1.171,1.171,0,0,0,1.171-1.171V323.581a1.171,1.171,0,0,0-1.171-1.171Zm-1.171,15.447h-2.659v-13.1h2.659Z"/>
    <path id="Path_37354" data-name="Path 37354" d="M540.911,322.41h-5a1.171,1.171,0,0,0-1.171,1.171v15.448a1.171,1.171,0,0,0,1.171,1.171h5a1.172,1.172,0,0,0,1.171-1.171V323.581a1.171,1.171,0,0,0-1.171-1.171Zm-1.173,15.447h-2.659v-13.1h2.659Z"/>
    <path id="Path_37355" data-name="Path 37355" d="M504.079,337.913H477.521a1.172,1.172,0,0,0,0,2.344h26.558a1.172,1.172,0,0,0,0-2.344Z"/>
    <path id="Path_37356" data-name="Path 37356" d="M543.794,274.179a.37.37,0,0,1-.5-.08,8.06,8.06,0,0,0-15.679,1.661,6.1,6.1,0,0,0-4.24,3.579,2.492,2.492,0,0,0,1.41,3.229,2.517,2.517,0,0,0,.87.171h21.659a2.453,2.453,0,0,0,2.459-2.44v-.021A6.047,6.047,0,0,0,543.794,274.179Zm3.519,6.219H525.654a.151.151,0,0,1-.12-.16,3.656,3.656,0,0,1,3.221-2.26,1.176,1.176,0,0,0,1.139-1.181v-.018a5.728,5.728,0,0,1,11.18-1.92,2.6,2.6,0,0,0,2.72,1.68,3.693,3.693,0,0,1,3.64,3.745v.015A.128.128,0,0,1,547.313,280.4Z"/>
    <path id="Path_37357" data-name="Path 37357" d="M498.627,293.852H520.3a2.484,2.484,0,0,0,2.459-2.444,6.048,6.048,0,0,0-5.98-6.1.424.424,0,0,1-.514-.08,8.054,8.054,0,0,0-15.679,1.661,6.039,6.039,0,0,0-4.232,3.566,2.485,2.485,0,0,0,1.4,3.224A2.46,2.46,0,0,0,498.627,293.852Zm21.779-2.435a.111.111,0,0,1-.115.091H498.627a.114.114,0,0,1-.119-.111.1.1,0,0,1,.005-.039,3.659,3.659,0,0,1,3.218-2.264,1.172,1.172,0,0,0,1.132-1.171v-.013A5.84,5.84,0,0,1,508.609,282a5.759,5.759,0,0,1,5.426,3.974,2.612,2.612,0,0,0,2.735,1.674,3.7,3.7,0,0,1,3.636,3.757Z"/>
  </g>
</svg>
