<svg xmlns="http://www.w3.org/2000/svg" width="19.598" height="19.599" viewBox="0 0 19.598 19.599">
  <path id="Path_349" data-name="Path 349" d="M230.3,308.65h4.025c2.625.175,3.85,1.4,4.025,4.025v8.049c-.175,2.625-1.4,3.85-4.025,4.025h-8.049c-2.625-.175-3.85-1.4-4.025-4.025v-8.049c.175-2.625,1.4-3.85,4.025-4.025Zm0-1.75h-4.025c-3.5.175-5.6,2.1-5.774,5.775v8.049c.175,3.5,2.1,5.6,5.774,5.775h8.049c3.5-.175,5.6-2.1,5.774-5.775v-8.049c-.175-3.5-2.1-5.6-5.774-5.775Zm0,4.725a5.075,5.075,0,1,0,5.075,5.075A5.078,5.078,0,0,0,230.3,311.625Zm0,8.4a3.325,3.325,0,0,1,0-6.649,3.218,3.218,0,0,1,3.325,3.325A3.575,3.575,0,0,1,230.3,320.024Zm5.25-9.8a1.225,1.225,0,1,0,1.225,1.225A1.474,1.474,0,0,0,235.549,310.225Z" transform="translate(-220.5 -306.9)" fill="#161615"/>
</svg>
