<svg id="Group_54" data-name="Group 54" xmlns="http://www.w3.org/2000/svg" width="19.123" height="18.273" viewBox="0 0 19.123 18.273">
  <g id="Group_53" data-name="Group 53" transform="translate(0 0)">
    <path id="Path_350" data-name="Path 350" d="M196.373,143.332v7.07h-4.1v-6.6c0-1.657-.592-2.789-2.076-2.789a2.242,2.242,0,0,0-2.1,1.5,2.8,2.8,0,0,0-.136,1V150.4h-4.1s.055-11.173,0-12.329h4.1v1.747c-.008.013-.02.027-.027.04h.027v-.04a4.073,4.073,0,0,1,3.7-2.037c2.7,0,4.719,1.762,4.719,5.549Zm-16.8-11.2a2.136,2.136,0,1,0-.053,4.259h.027a2.137,2.137,0,1,0,.027-4.259ZM177.495,150.4h4.1V138.072h-4.1Zm0,0" transform="translate(-177.25 -132.129)" fill="#161615"/>
  </g>
</svg>
