<?xml version="1.0" standalone="no"?>
<!DOCTYPE svg PUBLIC "-//W3C//DTD SVG 20010904//EN"
 "http://www.w3.org/TR/2001/REC-SVG-20010904/DTD/svg10.dtd">
<svg version="1.0" xmlns="http://www.w3.org/2000/svg"
 width="784.000000pt" height="343.000000pt" viewBox="0 0 784.000000 343.000000"
 preserveAspectRatio="xMidYMid meet">

<g transform="translate(0.000000,343.000000) scale(0.100000,-0.100000)"
fill="#000000" stroke="none">
<path d="M3840 2773 c-35 -5 -150 -35 -150 -39 0 -2 11 -24 25 -50 14 -26 25
-56 25 -68 1 -12 9 -1 20 28 21 54 50 89 95 117 17 11 26 18 20 18 -5 -1 -21
-4 -35 -6z"/>
<path d="M3937 2731 c-21 -60 -80 -116 -138 -131 l-43 -12 55 -18 c62 -21 108
-68 129 -131 l14 -41 13 37 c26 74 102 143 160 146 10 0 -4 11 -32 24 -62 29
-101 68 -123 128 l-18 46 -17 -48z"/>
<path d="M4072 2747 c43 -33 59 -56 79 -112 l11 -30 13 39 c8 22 23 52 34 67
l21 28 -41 11 c-33 9 -142 30 -157 30 -2 0 16 -15 40 -33z"/>
<path d="M4305 2658 c-16 -17 -52 -41 -79 -53 l-50 -22 35 -7 c49 -9 108 -61
134 -119 l23 -49 19 43 c20 44 92 119 116 119 14 0 -15 25 -90 75 -72 49 -74
49 -108 13z"/>
<path d="M3540 2663 c-14 -9 -49 -34 -78 -56 l-53 -40 29 -17 c39 -24 79 -74
87 -110 8 -38 21 -39 28 -1 12 56 109 140 164 141 10 1 -9 14 -42 29 -33 15
-69 38 -79 49 -23 26 -25 26 -56 5z"/>
<path d="M3741 2557 c-3 -56 -70 -135 -136 -158 -19 -7 -35 -16 -35 -19 0 -3
16 -12 35 -19 66 -23 133 -102 136 -158 0 -10 7 0 15 22 21 59 67 110 119 131
25 11 45 21 45 24 0 3 -20 13 -45 24 -42 17 -104 77 -105 101 -1 5 -7 24 -15
40 -9 20 -14 24 -14 12z"/>
<path d="M4136 2506 c-21 -43 -40 -65 -74 -87 -25 -16 -52 -29 -59 -29 -25 0
-13 -16 22 -29 53 -19 90 -55 115 -113 l22 -52 14 40 c16 48 92 122 134 130
41 9 38 18 -9 33 -46 13 -113 84 -127 133 l-10 32 -28 -58z"/>
<path d="M4532 2475 c-23 -33 -47 -53 -82 -68 -27 -12 -50 -25 -50 -28 0 -3
18 -11 39 -17 48 -15 106 -77 122 -132 l13 -41 19 50 c11 32 32 62 53 79 19
15 34 32 34 37 0 11 -54 93 -92 138 l-23 28 -33 -46z"/>
<path d="M3318 2462 c-19 -26 -44 -63 -56 -83 l-22 -36 21 -19 c23 -20 47 -60
66 -109 7 -19 12 -23 12 -12 3 56 86 153 142 164 37 7 37 19 2 28 -37 9 -90
50 -112 86 l-17 28 -36 -47z"/>
<path d="M3942 2323 c-16 -52 -83 -119 -134 -135 l-40 -12 48 -22 c61 -27 99
-67 124 -130 10 -27 19 -41 20 -31 0 28 37 93 67 122 16 14 48 33 72 42 l44
17 -38 13 c-74 25 -121 78 -147 162 -2 8 -9 -4 -16 -26z"/>
<path d="M3530 2332 c0 -47 -90 -135 -152 -148 -25 -6 -22 -8 35 -38 66 -33
90 -60 111 -121 l14 -38 21 48 c30 67 46 83 116 116 33 15 52 28 42 29 -54 1
-136 70 -158 133 -14 39 -29 49 -29 19z"/>
<path d="M4347 2306 c-23 -56 -62 -92 -123 -115 l-49 -19 39 -10 c70 -20 146
-101 146 -157 0 -25 17 -9 23 22 10 48 71 110 129 129 l51 17 -37 12 c-64 22
-105 57 -132 113 -15 28 -27 52 -28 52 0 0 -9 -20 -19 -44z"/>
<path d="M4709 2234 c-8 -10 -36 -27 -62 -40 l-49 -22 39 -13 c56 -18 92 -48
119 -99 l23 -45 -5 50 c-7 63 -32 167 -43 178 -4 4 -14 0 -22 -9z"/>
<path d="M3180 2193 c-5 -21 -13 -56 -17 -78 l-6 -40 42 38 c23 21 55 40 72
44 43 8 43 19 0 32 -21 6 -44 18 -51 26 -19 23 -28 18 -40 -22z"/>
<path d="M3321 2120 c-16 -55 -72 -115 -126 -136 l-44 -16 60 -30 c61 -30 99
-77 115 -141 6 -27 7 -26 25 25 20 61 72 112 132 130 l38 12 -59 26 c-63 29
-91 61 -114 128 l-15 43 -12 -41z"/>
<path d="M3732 2115 c-15 -56 -67 -109 -131 -131 l-49 -18 50 -17 c27 -9 60
-27 74 -40 32 -29 64 -90 65 -121 0 -15 7 -6 19 27 11 28 31 62 45 78 29 30
94 67 122 67 10 1 -4 10 -31 20 -64 25 -112 72 -134 132 l-18 48 -12 -45z"/>
<path d="M4563 2117 c-15 -54 -72 -111 -134 -135 l-49 -18 47 -13 c58 -18 118
-76 134 -131 l12 -41 18 47 c27 70 81 120 143 134 l31 7 -51 22 c-64 28 -100
64 -122 124 l-18 47 -11 -43z"/>
<path d="M4150 2115 c-17 -51 -86 -118 -141 -138 -24 -8 -36 -16 -26 -16 56
-3 153 -86 164 -142 6 -32 23 -50 23 -24 0 27 38 91 70 118 17 15 48 32 69 38
l39 12 -61 31 c-66 33 -91 60 -111 121 l-13 38 -13 -38z"/>
<path d="M3942 1913 c-17 -55 -65 -108 -125 -137 -28 -14 -44 -25 -34 -26 59
-1 148 -84 163 -153 l6 -31 19 49 c23 60 60 99 115 122 24 10 44 21 44 24 0 3
-17 11 -38 17 -49 15 -98 66 -121 126 l-18 47 -11 -38z"/>
<path d="M4356 1917 c-9 -49 -68 -114 -126 -140 l-45 -20 41 -14 c53 -18 109
-74 127 -126 l13 -40 28 56 c29 59 65 92 124 112 l35 12 -55 25 c-58 27 -86
58 -116 129 l-19 44 -7 -38z"/>
<path d="M3515 1885 c-20 -42 -39 -65 -73 -86 -25 -16 -54 -29 -64 -29 -32 0
-19 -16 24 -31 52 -17 103 -69 121 -123 l14 -41 20 45 c25 57 91 117 138 126
l37 7 -63 31 c-67 33 -92 60 -113 120 l-13 37 -28 -56z"/>
<path d="M4756 1884 c-20 -50 -76 -98 -127 -109 -37 -8 -37 -21 -1 -28 15 -3
44 -17 66 -32 21 -14 40 -25 41 -23 13 13 54 238 44 238 -2 0 -12 -21 -23 -46z"/>
<path d="M3163 1820 c4 -25 11 -62 17 -82 11 -37 11 -38 36 -22 13 9 41 22 61
29 l37 13 -52 22 c-29 13 -64 37 -79 54 l-26 31 6 -45z"/>
<path d="M3316 1694 c-10 -25 -31 -58 -48 -74 l-29 -29 37 -58 c20 -32 45 -68
57 -80 l20 -22 39 44 c23 26 56 50 84 61 l45 17 -37 13 c-68 23 -114 69 -137
136 l-13 36 -18 -44z"/>
<path d="M3737 1714 c-12 -62 -71 -124 -141 -148 l-37 -13 44 -17 c58 -22 108
-73 128 -131 l16 -46 12 42 c12 39 88 129 110 129 5 0 22 5 38 11 l28 11 -38
14 c-64 23 -98 54 -127 117 -26 57 -27 58 -33 31z"/>
<path d="M4147 1698 c-21 -55 -91 -123 -136 -133 -36 -8 -33 -20 6 -30 48 -12
94 -55 121 -113 l25 -56 13 37 c25 73 73 115 159 142 17 6 14 9 -17 20 -75 26
-128 79 -145 144 l-9 35 -17 -46z"/>
<path d="M4565 1711 c-11 -51 -62 -111 -117 -136 l-50 -23 43 -19 c40 -18 89
-64 114 -108 9 -15 16 -9 54 43 80 110 80 110 47 134 -16 12 -41 48 -56 80
-28 58 -28 59 -35 29z"/>
<path d="M3937 1491 c-20 -57 -90 -126 -139 -136 -29 -7 -29 -7 34 -39 57 -28
66 -37 93 -92 l31 -61 18 44 c25 59 79 110 135 127 l45 13 -34 7 c-73 14 -137
80 -159 164 -5 19 -9 15 -24 -27z"/>
<path d="M4360 1515 c0 -24 -35 -87 -63 -113 -13 -13 -45 -31 -71 -41 l-47
-18 43 -12 c26 -8 58 -29 80 -52 l38 -40 57 37 c32 20 71 47 86 60 l28 23 -28
15 c-40 20 -69 54 -93 109 -22 49 -30 58 -30 32z"/>
<path d="M3525 1493 c-9 -37 -50 -90 -86 -112 l-28 -17 52 -41 c29 -22 66 -47
82 -55 29 -15 31 -15 69 18 22 19 57 40 79 46 l38 12 -50 18 c-56 21 -116 82
-126 129 -8 37 -21 37 -30 2z"/>
<path d="M3736 1298 c-4 -20 -16 -48 -28 -63 -26 -33 -19 -40 57 -59 95 -25
105 -22 57 19 -27 23 -47 53 -60 87 l-19 51 -7 -35z"/>
<path d="M4135 1266 c-21 -42 -42 -69 -67 -85 -21 -13 -37 -25 -35 -27 4 -4
111 15 155 28 l44 13 -22 28 c-13 16 -28 46 -34 67 l-11 38 -30 -62z"/>
<path d="M2791 945 c-82 -26 -121 -84 -121 -180 0 -64 25 -122 66 -154 58 -46
179 -53 232 -14 85 61 97 223 23 307 -40 45 -129 64 -200 41z m141 -96 c36
-43 35 -135 -2 -182 -24 -30 -74 -39 -118 -21 -86 35 -80 202 8 230 42 14 88
3 112 -27z"/>
<path d="M4087 946 c-56 -15 -102 -55 -118 -104 -15 -44 -14 -120 0 -165 22
-66 103 -117 187 -117 34 0 131 27 137 38 2 4 0 22 -5 40 -8 30 -10 31 -31 18
-34 -21 -92 -28 -137 -16 -51 14 -80 57 -80 118 0 86 56 138 133 125 34 -5 36
-8 39 -47 3 -40 4 -41 41 -44 l37 -3 0 74 0 74 -57 12 c-69 14 -85 13 -146 -3z"/>
<path d="M6369 951 c-115 -24 -176 -169 -119 -281 41 -81 173 -123 275 -88 37
13 40 16 37 48 -1 19 -4 36 -6 38 -2 2 -26 -4 -52 -13 -77 -26 -152 -5 -179
50 -19 42 -19 88 0 125 22 42 53 60 106 60 39 0 48 -3 52 -21 3 -12 4 -34 1
-48 -5 -25 -3 -26 40 -27 l46 -1 0 69 c0 63 -2 69 -24 78 -36 13 -136 20 -177
11z"/>
<path d="M6707 946 c-65 -18 -89 -43 -91 -96 -1 -35 4 -46 30 -70 18 -15 61
-37 98 -50 36 -12 70 -29 75 -37 22 -40 -25 -77 -90 -71 -29 3 -35 7 -39 33
-4 26 -10 30 -43 33 l-37 3 0 -51 c0 -58 6 -62 98 -75 111 -15 202 34 202 109
0 50 -32 81 -121 117 -63 26 -81 38 -86 58 -8 34 20 53 77 49 43 -3 45 -5 48
-35 3 -30 6 -33 38 -33 l34 0 0 54 c0 51 -2 55 -27 60 -71 14 -122 14 -166 2z"/>
<path d="M1020 885 l0 -65 30 0 c23 0 30 5 30 19 0 40 11 51 51 51 l39 0 0
-130 c0 -123 -1 -130 -20 -130 -16 0 -20 -7 -20 -30 l0 -30 80 0 80 0 0 30 c0
23 -4 30 -20 30 -20 0 -20 5 -18 128 l3 127 40 0 c38 0 40 -2 43 -32 3 -29 7
-33 33 -33 l29 0 0 65 0 65 -190 0 -190 0 0 -65z"/>
<path d="M1440 921 c0 -20 6 -30 20 -34 19 -5 20 -14 20 -127 0 -113 -1 -122
-20 -127 -14 -4 -20 -14 -20 -34 l0 -29 80 0 80 0 0 30 c0 23 -4 30 -20 30
-17 0 -20 7 -20 50 l0 50 80 0 80 0 0 -50 c0 -43 -3 -50 -20 -50 -16 0 -20 -7
-20 -30 l0 -30 80 0 80 0 0 29 c0 20 -6 30 -20 34 -19 5 -20 14 -20 127 0 113
1 122 20 127 14 4 20 14 20 34 l0 29 -80 0 -80 0 0 -30 c0 -23 4 -30 20 -30
17 0 20 -7 20 -50 l0 -50 -80 0 -80 0 0 50 c0 43 3 50 20 50 16 0 20 7 20 30
l0 30 -80 0 -80 0 0 -29z"/>
<path d="M1880 921 c0 -20 6 -30 20 -34 19 -5 20 -14 20 -127 0 -113 -1 -122
-20 -127 -14 -4 -20 -14 -20 -34 l0 -29 160 0 160 0 0 60 c0 59 0 60 -29 60
-24 0 -30 -5 -34 -30 -6 -30 -7 -30 -72 -30 l-65 0 0 50 0 50 55 0 c52 0 55 1
55 25 0 24 -3 25 -55 25 l-55 0 0 55 0 56 68 -3 c65 -3 67 -4 70 -30 3 -24 8
-28 33 -28 29 0 29 0 29 60 l0 60 -160 0 -160 0 0 -29z"/>
<path d="M2238 945 c-10 -10 5 -55 18 -55 11 0 14 -26 14 -130 0 -109 -2 -130
-15 -130 -10 0 -15 -10 -15 -30 l0 -30 75 0 75 0 0 29 c0 20 -6 30 -20 34 -16
4 -20 14 -20 51 l0 46 85 0 85 0 0 -50 c0 -43 -3 -50 -20 -50 -16 0 -20 -7
-20 -30 0 -29 1 -30 49 -30 27 0 63 3 80 6 26 6 31 11 31 35 0 22 -5 29 -20
29 -19 0 -20 7 -20 125 0 118 1 125 20 125 16 0 20 7 20 30 l0 30 -80 0 -80 0
0 -30 c0 -23 4 -30 20 -30 17 0 20 -7 20 -50 l0 -50 -85 0 -85 0 0 46 c0 37 4
47 20 51 14 4 20 14 20 34 l0 29 -73 0 c-41 0 -76 -2 -79 -5z"/>
<path d="M3070 922 c0 -21 6 -31 20 -35 19 -5 20 -14 20 -127 0 -113 -1 -122
-20 -127 -14 -4 -20 -14 -20 -34 l0 -29 75 0 75 0 0 30 c0 20 -5 30 -15 30
-12 0 -15 19 -15 115 0 63 2 115 4 115 2 0 22 -54 46 -120 l42 -120 36 0 37 0
44 125 c24 69 45 125 47 125 2 0 4 -52 4 -116 0 -107 -1 -116 -20 -121 -14 -4
-20 -14 -20 -34 l0 -29 80 0 80 0 0 30 c0 23 -4 30 -20 30 -19 0 -20 7 -20
130 0 119 2 131 18 128 13 -2 18 5 20 30 l3 32 -84 0 -85 0 -42 -116 -43 -117
-41 114 -41 114 -83 3 -82 3 0 -29z"/>
<path d="M3600 920 c0 -23 4 -30 20 -30 19 0 20 -7 20 -130 0 -123 -1 -130
-20 -130 -16 0 -20 -7 -20 -30 l0 -30 160 0 160 0 0 60 c0 60 0 60 -29 60 -25
0 -30 -4 -33 -27 -3 -27 -5 -28 -68 -28 l-65 0 -3 48 -3 47 55 0 c53 0 56 1
56 25 0 22 -5 25 -32 25 -69 0 -78 8 -78 62 l0 49 68 -3 c65 -3 67 -4 70 -30
3 -24 8 -28 33 -28 29 0 29 0 29 60 l0 60 -160 0 -160 0 0 -30z"/>
<path d="M4340 920 c0 -20 5 -30 15 -30 13 0 15 -21 15 -130 0 -109 -2 -130
-15 -130 -10 0 -15 -10 -15 -30 l0 -30 160 0 160 0 0 60 0 60 -30 0 c-26 0
-31 -5 -36 -30 -6 -30 -7 -30 -70 -30 l-64 0 0 50 0 50 55 0 c52 0 55 1 55 25
0 22 -4 25 -42 27 -24 0 -49 1 -55 1 -9 -1 -13 16 -13 53 l0 54 64 0 c63 0 64
0 70 -30 5 -25 10 -30 36 -30 l30 0 0 60 0 60 -160 0 -160 0 0 -30z"/>
<path d="M4690 920 c0 -23 4 -30 20 -30 19 0 20 -7 20 -130 0 -123 -1 -130
-20 -130 -16 0 -20 -7 -20 -30 l0 -30 80 0 80 0 0 30 c0 23 -4 30 -20 30 -17
0 -20 7 -20 40 0 39 1 40 34 40 32 0 37 -4 72 -70 l38 -70 48 0 c46 0 48 1 48
29 0 23 -5 30 -22 33 -14 2 -31 18 -44 42 l-22 39 34 32 c30 28 34 39 34 81 0
100 -41 124 -215 124 l-125 0 0 -30z m218 -36 c42 -8 61 -53 39 -88 -17 -26
-80 -43 -117 -31 -17 5 -20 15 -20 59 0 29 3 56 7 59 8 9 51 9 91 1z"/>
<path d="M5169 792 c-47 -132 -59 -158 -77 -160 -17 -3 -22 -10 -22 -33 l0
-29 80 0 80 0 0 30 c0 20 -5 30 -15 30 -16 0 -19 9 -9 34 5 12 21 16 73 16 63
0 69 -2 79 -25 10 -22 9 -25 -8 -25 -16 0 -20 -7 -20 -30 l0 -31 78 3 c75 3
77 4 80 30 3 21 -1 27 -20 30 -19 3 -30 24 -78 160 l-55 158 -55 0 -55 0 -56
-158z m138 13 l21 -65 -48 0 c-48 0 -49 0 -40 28 26 80 34 102 40 102 3 0 15
-29 27 -65z"/>
<path d="M5510 920 c0 -23 4 -30 20 -30 19 0 20 -7 20 -130 0 -123 -1 -130
-20 -130 -16 0 -20 -7 -20 -30 l0 -30 80 0 80 0 0 30 c0 23 -4 30 -20 30 -19
0 -20 7 -20 115 0 63 2 115 4 115 2 0 23 -54 46 -120 l42 -120 37 0 36 0 43
120 c24 66 46 120 48 120 2 0 4 -50 4 -111 0 -102 -2 -111 -20 -116 -21 -6
-28 -47 -10 -58 6 -3 42 -3 80 1 65 6 70 8 70 30 0 17 -6 24 -20 24 -19 0 -20
7 -20 130 0 123 1 130 20 130 16 0 20 7 20 30 l0 30 -84 0 -83 0 -38 -105
c-20 -58 -40 -107 -44 -110 -4 -2 -25 45 -47 106 l-39 109 -82 0 -83 0 0 -30z"/>
<path d="M6040 920 c0 -23 4 -30 20 -30 19 0 20 -7 20 -129 0 -117 -2 -129
-17 -127 -13 1 -19 -7 -21 -26 l-3 -28 80 0 81 0 0 30 c0 23 -4 30 -20 30 -19
0 -20 7 -20 121 0 112 1 121 20 126 14 4 20 14 20 34 l0 29 -80 0 -80 0 0 -30z"/>
</g>
</svg>
