<svg xmlns="http://www.w3.org/2000/svg" width="250.982" height="43.038" viewBox="0 0 250.982 43.038">
  <g id="Group_41" data-name="Group 41" transform="translate(-16.241 -120.213)">
    <path id="Path_191" data-name="Path 191" d="M16.241,150.333H23.9v7.661h1.931v-9.588H16.241Z" fill="#161615"/>
    <path id="Path_192" data-name="Path 192" d="M16.241,154.139h3.851v3.854h1.927v-5.781H16.241Z" fill="#161615"/>
    <rect id="Rectangle_19" data-name="Rectangle 19" width="1.927" height="1.927" transform="translate(16.241 156.066)" fill="#161615"/>
    <path id="Path_193" data-name="Path 193" d="M172.03,129.567a19.736,19.736,0,0,0-25.362,0,15.684,15.684,0,0,0-5.307,12.251,15.485,15.485,0,0,0,5.263,12.25,20.438,20.438,0,0,0,25.446,0,15.485,15.485,0,0,0,5.263-12.25,15.693,15.693,0,0,0-5.3-12.251m-8.01,17.24a6.788,6.788,0,0,1-9.345,0,6.586,6.586,0,0,1-1.821-4.814,6.841,6.841,0,0,1,1.8-4.813,6.615,6.615,0,0,1,9.392,0,6.856,6.856,0,0,1,1.795,4.813,6.589,6.589,0,0,1-1.82,4.814" fill="#161615"/>
    <rect id="Rectangle_20" data-name="Rectangle 20" width="11.816" height="32.522" transform="translate(91.683 125.471)" fill="#161615"/>
    <path id="Path_194" data-name="Path 194" d="M137.224,125.471H127.68V142.4l-9.963-16.931H106.371v32.522h11.346V141.626l9.963,16.368h11.3V125.471Z" fill="#161615"/>
    <path id="Path_195" data-name="Path 195" d="M82.826,144.969a9.1,9.1,0,0,0,4.127-2.74,8.81,8.81,0,0,0,1.445-5.456q0-5.781-4.008-8.714-3.543-2.588-9.533-2.588H60.58v32.522H72.139V147.554h.217l5.175,10.439H91.16Zm-10.687-5.092v-5.52h.908a5.76,5.76,0,0,1,2.67.474,2.4,2.4,0,0,1,1.126,2.328q0,2.72-3.884,2.718Z" fill="#161615"/>
    <path id="Path_196" data-name="Path 196" d="M16.241,142.628H31.607v15.365h1.927V140.7H16.241Z" fill="#161615"/>
    <path id="Path_197" data-name="Path 197" d="M16.241,146.48H27.753v11.513H29.68v-13.44H16.241Z" fill="#161615"/>
    <path id="Path_198" data-name="Path 198" d="M16.241,129.28v1.927H43.026v26.787h1.927V129.28H16.241Z" fill="#161615"/>
    <path id="Path_199" data-name="Path 199" d="M16.241,138.82H35.413v19.174H37.34v-21.1h-21.1Z" fill="#161615"/>
    <path id="Path_200" data-name="Path 200" d="M46.836,125.471H16.241V127.4H46.836v30.6h1.92V125.471Z" fill="#161615"/>
    <path id="Path_201" data-name="Path 201" d="M16.241,133.086v1.925H39.22v22.982h1.927V133.086H16.241Z" fill="#161615"/>
    <g id="Group_37" data-name="Group 37">
      <rect id="Rectangle_21" data-name="Rectangle 21" width="1.048" height="43.038" transform="translate(189.707 120.213)" fill="#161615"/>
    </g>
    <g id="Group_38" data-name="Group 38">
      <path id="Path_202" data-name="Path 202" d="M203.444,153.77v-8.661h4.051a2.788,2.788,0,1,1,0,5.571h-2.207v3.09Zm5.077-5.869a1.172,1.172,0,0,0-1.285-1.169h-1.948v2.325h1.948A1.169,1.169,0,0,0,208.521,147.9Z" fill="#161615"/>
      <path id="Path_203" data-name="Path 203" d="M211.146,149.446a4.526,4.526,0,1,1,4.532,4.48A4.352,4.352,0,0,1,211.146,149.446Zm7.155,0a2.638,2.638,0,1,0-2.623,2.844A2.62,2.62,0,0,0,218.3,149.446Z" fill="#161615"/>
      <path id="Path_204" data-name="Path 204" d="M226.392,153.77l-1.7-3.077H223.34v3.077H221.5v-8.661h4.052a2.708,2.708,0,0,1,2.922,2.792,2.506,2.506,0,0,1-1.909,2.571l1.961,3.3Zm.182-5.882a1.17,1.17,0,0,0-1.286-1.156H223.34v2.338h1.948A1.175,1.175,0,0,0,226.574,147.888Z" fill="#161615"/>
      <path id="Path_205" data-name="Path 205" d="M229.25,152.55l1.013-1.442a3.8,3.8,0,0,0,2.753,1.182c1.025,0,1.506-.454,1.506-.961,0-1.506-4.986-.454-4.986-3.714,0-1.441,1.246-2.636,3.285-2.636a4.819,4.819,0,0,1,3.376,1.208l-1.026,1.376a3.721,3.721,0,0,0-2.519-.948c-.779,0-1.221.338-1.221.857,0,1.364,4.974.442,4.974,3.675,0,1.585-1.143,2.779-3.467,2.779A5,5,0,0,1,229.25,152.55Z" fill="#161615"/>
      <path id="Path_206" data-name="Path 206" d="M237.639,153.77v-8.661h6.13v1.623h-4.286v1.818h4.195v1.623h-4.195v1.974h4.286v1.623Z" fill="#161615"/>
      <path id="Path_207" data-name="Path 207" d="M245.133,153.77v-8.661h1.857v7.038h3.662v1.623Z" fill="#161615"/>
      <path id="Path_208" data-name="Path 208" d="M251.9,153.77v-8.661h6.129v1.623h-4.285v1.818h4.194v1.623h-4.194v1.974h4.285v1.623Z" fill="#161615"/>
      <path id="Path_209" data-name="Path 209" d="M265.444,153.77l-4.129-5.648v5.648h-1.844v-8.661h1.9l4.013,5.441v-5.441h1.843v8.661Z" fill="#161615"/>
    </g>
    <g id="Group_40" data-name="Group 40">
      <path id="Path_210" data-name="Path 210" d="M202.847,136.716l1.013-1.442a3.805,3.805,0,0,0,2.752,1.182c1.026,0,1.507-.455,1.507-.961,0-1.506-4.987-.455-4.987-3.714,0-1.442,1.247-2.636,3.286-2.636a4.819,4.819,0,0,1,3.376,1.208l-1.026,1.376a3.721,3.721,0,0,0-2.519-.948c-.779,0-1.221.338-1.221.857,0,1.364,4.974.442,4.974,3.675,0,1.584-1.143,2.779-3.468,2.779A5,5,0,0,1,202.847,136.716Z" fill="#161615"/>
      <path id="Path_211" data-name="Path 211" d="M211.236,137.936v-8.661h6.129V130.9H213.08v1.818h4.194v1.623H213.08v1.974h4.285v1.623Z" fill="#161615"/>
      <path id="Path_212" data-name="Path 212" d="M223.7,137.936l-1.7-3.077h-1.35v3.077h-1.844v-8.661h4.051a2.708,2.708,0,0,1,2.922,2.792,2.506,2.506,0,0,1-1.909,2.571l1.961,3.3Zm.181-5.882A1.169,1.169,0,0,0,222.6,130.9h-1.948v2.337H222.6A1.174,1.174,0,0,0,223.885,132.054Z" fill="#161615"/>
      <path id="Path_213" data-name="Path 213" d="M233.145,137.936l-.546-1.467h-3.713l-.546,1.467h-2.091l3.338-8.661H231.9l3.337,8.661Zm-2.4-6.817-1.35,3.727h2.7Z" fill="#161615"/>
      <path id="Path_214" data-name="Path 214" d="M243.574,137.936V131.69l-2.442,6.246h-.805l-2.441-6.246v6.246h-1.844v-8.661h2.584l2.1,5.415,2.1-5.415h2.6v8.661Z" fill="#161615"/>
      <path id="Path_215" data-name="Path 215" d="M255.847,137.936l-2.624-3.48-.675.818v2.662H250.7v-8.661h1.844v3.857l3.065-3.857h2.272l-3.441,4.064,3.675,4.6Z" fill="#161615"/>
      <g id="Group_39" data-name="Group 39">
        <rect id="Rectangle_22" data-name="Rectangle 22" width="1.844" height="2.194" transform="translate(247.146 129.275)" fill="#161615"/>
        <rect id="Rectangle_23" data-name="Rectangle 23" width="1.844" height="5.415" transform="translate(247.146 132.521)" fill="#161615"/>
      </g>
    </g>
  </g>
</svg>
