<svg xmlns="http://www.w3.org/2000/svg" width="286.512" height="68.861" viewBox="0 0 286.512 68.861">
  <g id="Group_1" data-name="Group 1" transform="translate(-10388.589 -1884.001)">
    <path id="Path_472" data-name="Path 472" d="M536.1-327.414H249.59v-68.861H536.1Z" transform="translate(10139 2280.276)" fill="#231f20"/>
    <path id="Path_473" data-name="Path 473" d="M0,0H7.443V7.447H9.32V-1.874H0Z" transform="translate(10409.849 1926.891)" fill="#fff"/>
    <path id="Path_474" data-name="Path 474" d="M0,0H3.743V3.747H5.617v-5.62H0Z" transform="translate(10409.849 1930.591)" fill="#fff"/>
    <path id="Path_475" data-name="Path 475" d="M270.848-345.938h1.873v-1.873h-1.873Z" transform="translate(10139 2280.276)" fill="#fff"/>
    <path id="Path_476" data-name="Path 476" d="M0,0A6.063,6.063,0,0,1-4.54,1.813,6.066,6.066,0,0,1-9.084,0a6.4,6.4,0,0,1-1.77-4.68A6.65,6.65,0,0,1-9.106-9.358a5.9,5.9,0,0,1,4.566-1.9,5.918,5.918,0,0,1,4.565,1.9A6.661,6.661,0,0,1,1.77-4.68,6.4,6.4,0,0,1,0,0M7.787-16.759A17.675,17.675,0,0,0-4.54-21.244a17.681,17.681,0,0,0-12.328,4.485A15.247,15.247,0,0,0-22.026-4.85,15.054,15.054,0,0,0-16.91,7.059,18.017,18.017,0,0,0-4.54,11.378,18.022,18.022,0,0,0,7.826,7.059,15.054,15.054,0,0,0,12.942-4.85,15.258,15.258,0,0,0,7.787-16.759" transform="translate(10553.505 1923.463)" fill="#fff"/>
    <path id="Path_477" data-name="Path 477" d="M344.185-377.553h11.487v31.615H344.185Z" transform="translate(10139 2280.276)" fill="#fff"/>
    <path id="Path_478" data-name="Path 478" d="M0,0H-9.278V16.458L-18.963,0H-29.992V31.615h11.029V15.7l9.685,15.911H1.705V0Z" transform="translate(10527.456 1902.723)" fill="#fff"/>
    <path id="Path_479" data-name="Path 479" d="M0,0V-5.366H.883a5.607,5.607,0,0,1,2.6.461A2.339,2.339,0,0,1,4.573-2.642Q4.573,0,.8,0ZM10.389,4.95A8.846,8.846,0,0,0,14.4,2.286a8.563,8.563,0,0,0,1.4-5.3q0-5.62-3.9-8.472Q8.467-14,2.642-14H-11.237V17.611H0V7.463H.211l5.03,10.148h13.25Z" transform="translate(10464.187 1916.727)" fill="#fff"/>
    <path id="Path_480" data-name="Path 480" d="M0,0H14.937V14.937H16.81V-1.874H0Z" transform="translate(10409.849 1919.401)" fill="#fff"/>
    <path id="Path_481" data-name="Path 481" d="M0,0H11.19V11.192h1.874V-1.873H0Z" transform="translate(10409.849 1923.146)" fill="#fff"/>
    <path id="Path_482" data-name="Path 482" d="M0,0V1.873H26.038v26.04h1.873V0H0Z" transform="translate(10409.849 1906.425)" fill="#fff"/>
    <path id="Path_483" data-name="Path 483" d="M0,0H18.637V18.639h1.874V-1.873H0Z" transform="translate(10409.849 1915.699)" fill="#fff"/>
    <path id="Path_484" data-name="Path 484" d="M0,0H-29.742V1.872H0V31.615H1.866V0Z" transform="translate(10439.59 1902.723)" fill="#fff"/>
    <path id="Path_485" data-name="Path 485" d="M0,0V1.872H22.337V24.213h1.874V0H0Z" transform="translate(10409.849 1910.125)" fill="#fff"/>
    <path id="Path_486" data-name="Path 486" d="M440.132-340.926h-1.019v-41.837h1.019Z" transform="translate(10139 2280.276)" fill="#fff"/>
    <path id="Path_487" data-name="Path 487" d="M0,0A1.139,1.139,0,0,0-1.25-1.136H-3.143v2.26H-1.25A1.138,1.138,0,0,0,0,0M-4.936,5.706v-8.42H-1A2.627,2.627,0,0,1,1.83,0,2.631,2.631,0,0,1-1,2.7H-3.143v3Z" transform="translate(10596.779 1924.428)" fill="#fff"/>
    <path id="Path_488" data-name="Path 488" d="M0,0A2.546,2.546,0,0,0-2.55-2.764,2.549,2.549,0,0,0-5.113,0,2.557,2.557,0,0,0-2.55,2.765,2.553,2.553,0,0,0,0,0M-6.956,0A4.231,4.231,0,0,1-2.55-4.355,4.228,4.228,0,0,1,1.843,0,4.228,4.228,0,0,1-2.55,4.355,4.231,4.231,0,0,1-6.956,0" transform="translate(10606.286 1925.93)" fill="#fff"/>
    <path id="Path_489" data-name="Path 489" d="M0,0A1.138,1.138,0,0,0-1.25-1.124H-3.143V1.149H-1.25A1.142,1.142,0,0,0,0,0M-.177,5.718-1.83,2.727H-3.143V5.718H-4.936V-2.7H-1A2.633,2.633,0,0,1,1.843.013a2.435,2.435,0,0,1-1.856,2.5L1.893,5.718Z" transform="translate(10614.329 1924.415)" fill="#fff"/>
    <path id="Path_490" data-name="Path 490" d="M0,0,.985-1.4A3.7,3.7,0,0,0,3.661-.253c1,0,1.464-.441,1.464-.934C5.125-2.651.278-1.629.278-4.8.278-6.2,1.49-7.36,3.471-7.36A4.686,4.686,0,0,1,6.754-6.186l-1,1.339a3.611,3.611,0,0,0-2.449-.922c-.757,0-1.186.328-1.186.833,0,1.326,4.835.429,4.835,3.573,0,1.54-1.111,2.7-3.371,2.7A4.863,4.863,0,0,1,0,0" transform="translate(10616.93 1928.947)" fill="#fff"/>
    <path id="Path_491" data-name="Path 491" d="M0,0V-8.42H5.958v1.578H1.793v1.767H5.87V-3.5H1.793v1.919H5.958V0Z" transform="translate(10625.086 1930.133)" fill="#fff"/>
    <path id="Path_492" data-name="Path 492" d="M0,0V-8.42H1.8v6.842h3.56V0Z" transform="translate(10632.37 1930.133)" fill="#fff"/>
    <path id="Path_493" data-name="Path 493" d="M0,0V-8.42H5.958v1.578H1.793v1.767H5.87V-3.5H1.793v1.919H5.958V0Z" transform="translate(10638.948 1930.133)" fill="#fff"/>
    <path id="Path_494" data-name="Path 494" d="M0,0-4.014-5.491V0H-5.807V-8.42h1.843l3.9,5.289V-8.42H1.729V0Z" transform="translate(10652.115 1930.133)" fill="#fff"/>
    <path id="Path_495" data-name="Path 495" d="M0,0,.985-1.4A3.7,3.7,0,0,0,3.661-.253c1,0,1.464-.441,1.464-.934C5.125-2.651.278-1.629.278-4.8.278-6.2,1.49-7.36,3.471-7.36A4.686,4.686,0,0,1,6.754-6.186l-1,1.339a3.611,3.611,0,0,0-2.449-.922c-.757,0-1.186.328-1.186.833,0,1.326,4.835.429,4.835,3.573,0,1.54-1.111,2.7-3.371,2.7A4.863,4.863,0,0,1,0,0" transform="translate(10591.264 1913.554)" fill="#fff"/>
    <path id="Path_496" data-name="Path 496" d="M0,0V-8.42H5.958v1.578H1.793v1.767H5.87V-3.5H1.793v1.919H5.958V0Z" transform="translate(10599.419 1914.741)" fill="#fff"/>
    <path id="Path_497" data-name="Path 497" d="M0,0A1.138,1.138,0,0,0-1.25-1.124H-3.144V1.149H-1.25A1.142,1.142,0,0,0,0,0M-.177,5.718-1.83,2.727H-3.144V5.718H-4.936V-2.7H-1A2.633,2.633,0,0,1,1.843.013a2.435,2.435,0,0,1-1.856,2.5L1.893,5.718Z" transform="translate(10611.715 1909.022)" fill="#fff"/>
    <path id="Path_498" data-name="Path 498" d="M0,0-1.313,3.623H1.313ZM2.335,6.627,1.8,5.2H-1.8l-.53,1.426H-4.368l3.244-8.42H1.123l3.245,8.42Z" transform="translate(10618.381 1908.113)" fill="#fff"/>
    <path id="Path_499" data-name="Path 499" d="M0,0V-6.072L-2.373,0h-.783L-5.529-6.072V0H-7.322V-8.42H-4.81l2.045,5.264L-.72-8.42H1.8V0Z" transform="translate(10630.854 1914.741)" fill="#fff"/>
    <path id="Path_500" data-name="Path 500" d="M0,0-2.55-3.383l-.656.795V0H-5V-8.42h1.793v3.749L-.227-8.42H1.982L-1.363-4.469,2.209,0Z" transform="translate(10642.785 1914.741)" fill="#fff"/>
    <path id="Path_501" data-name="Path 501" d="M497.12-373.955h-1.793v2.133h1.793Z" transform="translate(10139 2280.276)" fill="#fff"/>
    <path id="Path_502" data-name="Path 502" d="M495.327-365.535h1.793V-370.8h-1.793Z" transform="translate(10139 2280.276)" fill="#fff"/>
  </g>
</svg>
